<svg xmlns="http://www.w3.org/2000/svg" width="21" height="21" fill="none"><rect id="backgroundrect" width="100%" height="100%" x="0" y="0" fill="none" stroke="none"/>



<g class="currentLayer" style=""><title>Layer 1</title><path d="M10.5,0 C4.70156,0 0,4.70156 0,10.5 C0,16.2984 4.70156,21 10.5,21 C16.2984,21 21,16.2984 21,10.5 C21,4.70156 16.2984,0 10.5,0 zM10.5,19.2188 C5.68594,19.2188 1.78125,15.3141 1.78125,10.5 C1.78125,5.68594 5.68594,1.78125 10.5,1.78125 C15.3141,1.78125 19.2188,5.68594 19.2188,10.5 C19.2188,15.3141 15.3141,19.2188 10.5,19.2188 z" fill="#73CC1A" id="svg_1" class=""/><path d="M10.5,1.78125 C5.68594,1.78125 1.78125,5.68594 1.78125,10.5 C1.78125,15.3141 5.68594,19.2188 10.5,19.2188 C15.3141,19.2188 19.2188,15.3141 19.2188,10.5 C19.2188,5.68594 15.3141,1.78125 10.5,1.78125 zM15.032800000000002,7.07109 L10.0969,13.9148 C10.0279,14.011099999999999 9.9369,14.0896 9.8316,14.143699999999999 C9.7262,14.1978 9.6095,14.226099999999999 9.491,14.226099999999999 C9.3726,14.226099999999999 9.2558,14.1978 9.150500000000001,14.143699999999999 C9.0451,14.0896 8.9541,14.011099999999999 8.8852,13.9148 L5.96484,9.8648 C5.87578,9.7406 5.96484,9.5672 6.11719,9.5672 H7.21641 C7.45781,9.5672 7.68281,9.6844 7.82344,9.8789 L9.4922,12.1945 L13.1766,7.08516 C13.3172,6.88828 13.5445,6.773440000000001 13.7836,6.773440000000001 H14.8828 C15.0352,6.773440000000001 15.124200000000002,6.94688 15.032800000000002,7.07109 z" fill="#73CC1A" fill-opacity="0.15" id="svg_2" class=""/><path d="M14.8828,6.773440000000001 H13.7836 C13.5445,6.773440000000001 13.3172,6.88828 13.1766,7.08516 L9.4922,12.1945 L7.82343,9.8789 C7.6828,9.6844 7.457800000000001,9.5672 7.2164,9.5672 H6.11718 C5.96484,9.5672 5.87577,9.7406 5.96484,9.8648 L8.8851,13.9148 C8.9541,14.011099999999999 9.0451,14.0896 9.1504,14.143699999999999 C9.2558,14.1978 9.3726,14.226099999999999 9.491,14.226099999999999 C9.6095,14.226099999999999 9.7262,14.1978 9.8316,14.143699999999999 C9.9369,14.0896 10.0279,14.011099999999999 10.0969,13.9148 L15.032800000000002,7.07109 C15.124200000000002,6.94688 15.0351,6.773440000000001 14.8828,6.773440000000001 z" fill="#73CC1A" id="svg_3" class=""/></g></svg>