<svg width="22" height="21" viewBox="0 0 22 21" fill="none" xmlns="http://www.w3.org/2000/svg">
<path d="M11 0C5.20156 0 0.5 4.70156 0.5 10.5C0.5 16.2984 5.20156 21 11 21C16.7984 21 21.5 16.2984 21.5 10.5C21.5 4.70156 16.7984 0 11 0ZM11 19.2188C6.18594 19.2188 2.28125 15.3141 2.28125 10.5C2.28125 5.68594 6.18594 1.78125 11 1.78125C15.8141 1.78125 19.7188 5.68594 19.7188 10.5C19.7188 15.3141 15.8141 19.2188 11 19.2188ZM13.7586 5.42344C13.3859 5.34141 12.9523 5.29688 12.4625 5.29688C9.96172 5.29688 8.26953 6.60234 7.80781 8.81016H7.0625C6.95937 8.81016 6.875 8.89453 6.875 8.99766V9.63516C6.875 9.73828 6.95937 9.82266 7.0625 9.82266H7.68125C7.67422 9.91875 7.67422 10.0195 7.67422 10.1227V10.9875H7.0625C6.95937 10.9875 6.875 11.0719 6.875 11.175V11.8125C6.875 11.9156 6.95937 12 7.0625 12H7.77031C8.17344 14.325 9.88906 15.7031 12.4625 15.7031C12.9523 15.7031 13.3859 15.6633 13.7586 15.5836C13.8453 15.5648 13.9086 15.4898 13.9086 15.4008V14.3977C13.9086 14.2805 13.8008 14.1914 13.6859 14.2148C13.3414 14.2805 12.9383 14.3109 12.4719 14.3109C10.8664 14.3109 9.78828 13.4531 9.42969 12H12.4906C12.5937 12 12.6781 11.9156 12.6781 11.8125V11.175C12.6781 11.0719 12.5937 10.9875 12.4906 10.9875H9.29375V10.1437C9.29375 10.0336 9.29375 9.92344 9.30078 9.82031H12.4859C12.5891 9.82031 12.6734 9.73594 12.6734 9.63281V8.99531C12.6734 8.89219 12.5891 8.80781 12.4859 8.80781H9.47891C9.88203 7.47422 10.9391 6.68906 12.4695 6.68906C12.9359 6.68906 13.3391 6.72422 13.6813 6.79219C13.7084 6.79773 13.7365 6.79718 13.7634 6.79058C13.7903 6.78398 13.8155 6.77148 13.837 6.754C13.8585 6.73651 13.8759 6.71447 13.8879 6.68946C13.8998 6.66446 13.9061 6.6371 13.9062 6.60938V5.60625C13.9062 5.51719 13.8453 5.44219 13.7586 5.42344Z" fill="#0052A9"/>
</svg>
