<svg xmlns="http://www.w3.org/2000/svg" width="19" height="14" fill="none"><rect id="backgroundrect" width="100%" height="100%" x="0" y="0" fill="none" stroke="none"/>




<g class="currentLayer" style=""><title>Layer 1</title><path d="M0.12406005859374991,7.558210064697265 C0.04237005859374987,7.385210064697265 5.859375029615421e-8,7.196310064697265 5.859375029615421e-8,7.005010064697265 C5.859375029615421e-8,6.813710064697265 0.04237005859374987,6.6247100646972665 0.12406005859374991,6.451810064697266 C2.16078005859375,2.1591800646972654 5.23734005859375,6.469726576696644e-8 9.36661005859375,6.469726576696644e-8 C5.23734005859375,6.469726576696644e-8 2.16078005859375,2.1591800646972654 0.12406005859374991,6.451810064697266 C0.04237005859374987,6.6247100646972665 5.859375029615421e-8,6.813710064697265 5.859375029615421e-8,7.005010064697265 C5.859375029615421e-8,7.196310064697265 0.04237005859374987,7.385210064697265 0.12406005859374991,7.558210064697265 C2.16078005859375,11.848610064697265 5.23949005859375,14.007810064697267 9.36661005859375,14.007810064697267 C5.23949005859375,14.007810064697267 2.16078005859375,11.848610064697265 0.12406005859374991,7.558210064697265 z" fill="#3FAAD7" fill-opacity="0.15" id="svg_1" class=""/><path d="M9.36671005859375,1.546880064697266 C5.90123005859375,1.546880064697266 3.36393005859375,3.304300064697266 1.5742800585937502,7.003910064697266 C3.36393005859375,10.703510064697266 5.90123005859375,12.460910064697266 9.36671005859375,12.460910064697266 C12.83421005859375,12.460910064697266 15.37151005859375,10.703510064697266 17.15901005859375,7.003910064697266 C15.36941005859375,3.304300064697266 12.83211005859375,1.546880064697266 9.36671005859375,1.546880064697266 zM9.28071005859375,10.785110064697266 C7.19244005859375,10.785110064697266 5.49948005859375,9.092210064697266 5.49948005859375,7.003910064697266 C5.49948005859375,4.915630064697266 7.19244005859375,3.2226600646972656 9.28071005859375,3.2226600646972656 C11.36901005859375,3.2226600646972656 13.06201005859375,4.915630064697266 13.06201005859375,7.003910064697266 C13.06201005859375,9.092210064697266 11.36901005859375,10.785110064697266 9.28071005859375,10.785110064697266 z" fill="#3FAAD7" fill-opacity="0.15" id="svg_2" class=""/><path d="M18.60921005859375,6.449610064697266 C16.57251005859375,2.1591800646972654 13.49381005859375,6.469726576696644e-8 9.36661005859375,6.469726576696644e-8 C5.23734005859375,6.469726576696644e-8 2.16078005859375,2.1591800646972654 0.12406005859374991,6.451810064697266 C0.04237005859374987,6.6247100646972665 5.859375029615421e-8,6.813710064697265 5.859375029615421e-8,7.005010064697265 C5.859375029615421e-8,7.196310064697265 0.04237005859374987,7.385210064697265 0.12406005859374991,7.558210064697265 C2.16078005859375,11.848610064697265 5.23949005859375,14.007810064697267 9.36661005859375,14.007810064697267 C13.49591005859375,14.007810064697267 16.57251005859375,11.848610064697265 18.60921005859375,7.556010064697265 C18.77461005859375,7.208010064697266 18.77461005859375,6.804110064697266 18.60921005859375,6.449610064697266 zM9.36661005859375,12.460910064697266 C5.90121005859375,12.460910064697266 3.36391005859375,10.703510064697266 1.57426005859375,7.003910064697266 C3.36391005859375,3.304300064697266 5.90121005859375,1.546880064697266 9.36661005859375,1.546880064697266 C12.83211005859375,1.546880064697266 15.36941005859375,3.304300064697266 17.15901005859375,7.003910064697266 C15.37151005859375,10.703510064697266 12.83421005859375,12.460910064697266 9.36661005859375,12.460910064697266 z" fill="#3FAAD7" id="svg_3" class=""/><path d="M9.28071005859375,3.2226600646972656 C7.1924200585937506,3.2226600646972656 5.49945005859375,4.915630064697266 5.49945005859375,7.003910064697266 C5.49945005859375,9.092210064697266 7.1924200585937506,10.785110064697266 9.28071005859375,10.785110064697266 C11.36901005859375,10.785110064697266 13.06191005859375,9.092210064697266 13.06191005859375,7.003910064697266 C13.06191005859375,4.915630064697266 11.36901005859375,3.2226600646972656 9.28071005859375,3.2226600646972656 zM9.28071005859375,9.410110064697266 C7.9508200585937505,9.410110064697266 6.87445005859375,8.333810064697266 6.87445005859375,7.003910064697266 C6.87445005859375,5.674030064697266 7.9508200585937505,4.597660064697266 9.28071005859375,4.597660064697266 C10.61061005859375,4.597660064697266 11.68691005859375,5.674030064697266 11.68691005859375,7.003910064697266 C11.68691005859375,8.333810064697266 10.61061005859375,9.410110064697266 9.28071005859375,9.410110064697266 z" fill="#3FAAD7" id="svg_4" class=""/></g></svg>