<svg width="54" height="48" viewBox="0 0 54 48" fill="none" xmlns="http://www.w3.org/2000/svg">
<path d="M33.33 31.0889C33.2128 31.073 33.0935 31.0858 32.9824 31.1263C32.8714 31.1668 32.7718 31.2338 32.6925 31.3214C32.6117 31.4076 32.5525 31.5116 32.5197 31.625C32.4868 31.7384 32.4813 31.858 32.5035 31.9739C32.9175 34.1489 34.311 37.1339 38.589 38.9924C39.096 39.2114 39.879 39.3824 40.872 39.5969C44.589 40.4009 50.805 41.7479 52.332 47.4449C52.3576 47.5402 52.4017 47.6294 52.4618 47.7076C52.5219 47.7858 52.5968 47.8514 52.6823 47.9006C52.7677 47.9499 52.862 47.9818 52.9598 47.9946C53.0576 48.0074 53.157 48.0008 53.2522 47.9752C53.3475 47.9496 53.4367 47.9055 53.5149 47.8454C53.5931 47.7852 53.6587 47.7103 53.7079 47.6249C53.7572 47.5394 53.7891 47.4451 53.8019 47.3473C53.8147 47.2495 53.8081 47.1502 53.7825 47.0549C52.017 40.4744 44.9745 38.9489 41.19 38.1299C40.314 37.9394 39.5565 37.7759 39.186 37.6139C36.615 36.4979 34.9545 34.8419 34.2345 32.6849C41.3775 33.2159 44.6115 30.3704 44.754 30.2414C44.8418 30.1619 44.9096 30.0626 44.9517 29.9518C44.9937 29.841 45.009 29.7218 44.9961 29.604C44.9832 29.4862 44.9426 29.3731 44.8776 29.274C44.8125 29.1749 44.7249 29.0926 44.622 29.0339C40.5 26.6789 40.5 18.5414 40.5 15.4769C40.5 6.90743 34.728 0.11393 27.3285 0.00742969C27.258 0.00508352 27.1875 0.00358341 27.117 0.00292969H27.1155C19.608 0.0449297 13.5 6.84593 13.5 15.1649C13.5 18.2294 13.5 26.3684 9.37796 28.7219C9.2717 28.7836 9.18213 28.8704 9.11702 28.9746C9.05191 29.0788 9.01324 29.1973 9.00437 29.3199C8.9955 29.4425 9.0167 29.5653 9.06612 29.6778C9.11555 29.7903 9.1917 29.8891 9.28796 29.9654C9.49496 30.1259 14.07 33.6269 19.6995 32.5634C18.9465 34.6304 17.3085 36.2204 14.8125 37.3049C14.451 37.4624 13.731 37.6349 12.897 37.8329C9.08696 38.7389 1.99346 40.4264 0.217458 47.0534C0.191949 47.1487 0.185448 47.248 0.198328 47.3458C0.211208 47.4435 0.243215 47.5378 0.292523 47.6232C0.392105 47.7956 0.55611 47.9214 0.748458 47.9729C0.940806 48.0244 1.14574 47.9974 1.31818 47.8979C1.49062 47.7983 1.61644 47.6343 1.66796 47.4419C3.21146 41.6759 9.49346 40.1834 13.245 39.2894C14.1855 39.0659 14.928 38.8889 15.411 38.6804C19.689 36.8219 21.081 33.8369 21.4965 31.6619C21.5211 31.5345 21.5121 31.4029 21.4703 31.28C21.4284 31.1571 21.3552 31.0473 21.258 30.9614C21.1614 30.8748 21.044 30.8148 20.9172 30.7874C20.7904 30.7601 20.6586 30.7663 20.535 30.8054C16.4745 32.0834 12.723 30.3254 11.0835 29.3504C15 26.0714 15 18.5249 15 15.1649C15 7.66943 20.439 1.54043 27.18 1.49993L27.339 1.50893C33.987 1.60343 39 7.60793 39 15.4769C39 18.8384 39 26.4014 42.933 29.6804C41.5785 30.4544 38.49 31.7069 33.33 31.0889Z" fill="#3FAAD7"/>
</svg>
