<svg width="20" height="21" viewBox="0 0 20 21" fill="none" xmlns="http://www.w3.org/2000/svg">
<path d="M11 0.530029V2.55003C15.39 3.09003 18.5 7.08003 17.96 11.47C17.5 15.11 14.64 18 11 18.43V20.43C16.5 19.88 20.5 15 19.95 9.50003C19.5 4.75003 15.73 1.00003 11 0.530029ZM9.00005 0.560029C7.05005 0.750029 5.19005 1.50003 3.67005 2.76003L5.10005 4.24003C6.22005 3.34003 7.57005 2.76003 9.00005 2.56003V0.560029ZM2.26005 4.17003C1.0097 5.68737 0.240251 7.54311 0.0500488 9.50003H2.05005C2.24005 8.08003 2.80005 6.73003 3.69005 5.60003L2.26005 4.17003ZM13.5 7.00003L8.62005 11.88L6.50005 9.76003L5.44005 10.82L8.62005 14L14.56 8.06003L13.5 7.00003ZM0.0600488 11.5C0.260049 13.46 1.03005 15.31 2.27005 16.83L3.69005 15.4C2.80698 14.2696 2.244 12.9226 2.06005 11.5H0.0600488ZM5.10005 16.87L3.67005 18.24C5.18483 19.5027 7.03932 20.2891 9.00005 20.5V18.5C7.57745 18.3161 6.23045 17.7531 5.10005 16.87Z" fill="#596C81"/>
</svg>
