<svg width="20" height="11" viewBox="0 0 20 11" fill="none" xmlns="http://www.w3.org/2000/svg">
<path d="M18.3333 0.083313H7.5C6.58333 0.083313 5.83333 0.833313 5.83333 1.74998V9.24998C5.83333 9.69201 6.00893 10.1159 6.32149 10.4285C6.63405 10.7411 7.05797 10.9166 7.5 10.9166H18.3333C19.2583 10.9166 20 10.175 20 9.24998V1.74998C20 1.30795 19.8244 0.884029 19.5118 0.571468C19.1993 0.258908 18.7754 0.083313 18.3333 0.083313ZM18.3333 9.24998H7.5V3.14165L12.9167 5.91665L18.3333 3.14165V9.24998ZM12.9167 4.50831L7.5 1.74998H18.3333L12.9167 4.50831ZM4.16667 9.24998C4.16667 9.39165 4.19167 9.52498 4.20833 9.66665H0.833333C0.373333 9.66665 0 9.29165 0 8.83331C0 8.37498 0.373333 7.99998 0.833333 7.99998H4.16667V9.24998ZM2.5 1.33331H4.20833C4.19167 1.47498 4.16667 1.60831 4.16667 1.74998V2.99998H2.5C2.04167 2.99998 1.66667 2.62498 1.66667 2.16665C1.66667 1.70831 2.04167 1.33331 2.5 1.33331ZM0.833333 5.49998C0.833333 5.04165 1.20833 4.66665 1.66667 4.66665H4.16667V6.33331H1.66667C1.20833 6.33331 0.833333 5.95831 0.833333 5.49998Z" fill="#596C81"/>
</svg>
