<svg width="54" height="48" viewBox="0 0 54 48" fill="none" xmlns="http://www.w3.org/2000/svg">
<path d="M0.749977 47.9744C0.942078 48.0244 1.14617 47.9968 1.31801 47.8974C1.48984 47.798 1.61559 47.6349 1.66798 47.4434C3.21298 41.6789 9.49198 40.1849 13.245 39.2909C14.1855 39.0674 14.928 38.8904 15.411 38.6819C19.686 36.8264 21.0795 33.8414 21.4965 31.6634C21.5213 31.5338 21.5114 31.4 21.468 31.2754C21.4245 31.1508 21.349 31.0399 21.249 30.9539C19.023 29.0324 17.145 26.1479 15.96 22.8299C15.9265 22.7347 15.874 22.6474 15.8055 22.5734C14.238 20.8694 13.338 19.0679 13.338 17.6324C13.338 16.7939 13.6545 16.2314 14.367 15.8069C14.4737 15.7431 14.5629 15.6538 14.6265 15.5469C14.6901 15.4401 14.7262 15.3191 14.7315 15.1949C15.063 7.55389 20.505 1.53889 27.18 1.49989L27.3405 1.51039C34.0485 1.60339 39.456 7.74739 39.6495 15.4964C39.6522 15.6023 39.6774 15.7064 39.7234 15.8019C39.7695 15.8973 39.8353 15.9818 39.9165 16.0499C40.386 16.4474 40.605 16.9514 40.605 17.6354C40.605 18.8369 39.9645 20.3144 38.8035 21.7934C38.7481 21.8646 38.7055 21.9447 38.6775 22.0304C37.4775 25.8344 35.3235 29.1929 32.7705 31.2479C32.6647 31.3333 32.5841 31.4458 32.537 31.5733C32.49 31.7009 32.4784 31.8388 32.5035 31.9724C32.9205 34.1489 34.314 37.1324 38.589 38.9909C39.0945 39.2099 39.879 39.3809 40.8735 39.5954C44.589 40.3994 50.8065 41.7479 52.332 47.4434C52.3576 47.5385 52.4017 47.6277 52.4617 47.7058C52.5218 47.7839 52.5967 47.8494 52.6821 47.8986C52.7674 47.9478 52.8617 47.9796 52.9594 47.9924C53.0571 48.0051 53.1563 47.9985 53.2515 47.9729C53.3466 47.9473 53.4358 47.9032 53.5139 47.8431C53.592 47.7831 53.6575 47.7082 53.7067 47.6228C53.7558 47.5374 53.7877 47.4432 53.8004 47.3455C53.8132 47.2478 53.8066 47.1485 53.781 47.0534C52.0185 40.4729 44.9745 38.9474 41.1915 38.1284C40.314 37.9379 39.5565 37.7744 39.1875 37.6124C36.3975 36.4004 34.6785 34.5539 34.071 32.1149C36.6615 29.8904 38.829 26.4584 40.068 22.6094C41.3835 20.8994 42.1065 19.1384 42.1065 17.6339C42.1065 16.6304 41.7825 15.7934 41.1405 15.1394C40.7835 6.73339 34.785 0.113895 27.3405 0.00739453L27.117 0.00439453C19.8075 0.0433945 13.7835 6.48889 13.257 14.7494C12.318 15.4394 11.841 16.4069 11.841 17.6354C11.841 19.4099 12.8445 21.5324 14.601 23.4794C15.8145 26.8139 17.6955 29.7434 19.935 31.7939C19.3305 34.2419 17.61 36.0944 14.814 37.3079C14.4525 37.4654 13.7325 37.6379 12.8985 37.8359C9.08698 38.7419 1.99498 40.4294 0.218977 47.0564C0.167687 47.2485 0.194813 47.4532 0.294391 47.6253C0.393968 47.7975 0.557843 47.923 0.749977 47.9744Z" fill="#3FAAD7"/>
</svg>
