<svg width="18" height="17" viewBox="0 0 18 17" fill="none" xmlns="http://www.w3.org/2000/svg">
<path d="M17.0555 1.44063L16.0617 0.446875C16.0265 0.411981 15.9789 0.392406 15.9293 0.392406C15.8797 0.392406 15.8321 0.411981 15.7969 0.446875L0.944531 15.2945C0.909637 15.3298 0.890062 15.3774 0.890062 15.427C0.890062 15.4765 0.909637 15.5241 0.944531 15.5594L1.93828 16.5531C2.01094 16.6258 2.13047 16.6258 2.20312 16.5531L17.0531 1.70312C17.1281 1.63281 17.1281 1.51328 17.0555 1.44063ZM4.125 7C5.98594 7 7.5 5.48594 7.5 3.625C7.5 1.76406 5.98594 0.25 4.125 0.25C2.26406 0.25 0.75 1.76406 0.75 3.625C0.75 5.48594 2.26406 7 4.125 7ZM4.125 1.9375C5.05547 1.9375 5.8125 2.69453 5.8125 3.625C5.8125 4.55547 5.05547 5.3125 4.125 5.3125C3.19453 5.3125 2.4375 4.55547 2.4375 3.625C2.4375 2.69453 3.19453 1.9375 4.125 1.9375ZM13.875 10C12.0141 10 10.5 11.5141 10.5 13.375C10.5 15.2359 12.0141 16.75 13.875 16.75C15.7359 16.75 17.25 15.2359 17.25 13.375C17.25 11.5141 15.7359 10 13.875 10ZM13.875 15.0625C12.9445 15.0625 12.1875 14.3055 12.1875 13.375C12.1875 12.4445 12.9445 11.6875 13.875 11.6875C14.8055 11.6875 15.5625 12.4445 15.5625 13.375C15.5625 14.3055 14.8055 15.0625 13.875 15.0625Z" fill="#0052A9"/>
</svg>
