<svg width="20" height="16" viewBox="0 0 20 16" fill="none" xmlns="http://www.w3.org/2000/svg">
<path d="M19.7583 12.3917C17.2167 9.98335 13.7833 8.50002 10 8.50002C6.21667 8.50002 2.78333 9.98335 0.241667 12.3917C0.0916667 12.5417 0 12.75 0 12.9834C0 13.2167 0.0916667 13.425 0.241667 13.575L2.30833 15.6417C2.45833 15.7917 2.66667 15.8834 2.9 15.8834C3.125 15.8834 3.33333 15.7917 3.48333 15.65C4.14167 15.0334 4.89167 14.5167 5.7 14.1084C5.975 13.975 6.16667 13.6917 6.16667 13.3584V10.775C7.375 10.375 8.66667 10.1667 10 10.1667C11.3333 10.1667 12.625 10.375 13.8333 10.7667V13.35C13.8333 13.675 14.025 13.9667 14.3 14.1C15.1167 14.5084 15.8583 15.0334 16.5167 15.6417C16.6667 15.7917 16.875 15.875 17.1 15.875C17.3333 15.875 17.5417 15.7834 17.6917 15.6334L19.7583 13.5667C19.9083 13.4167 20 13.2084 20 12.975C20 12.7562 19.9131 12.5464 19.7583 12.3917ZM4.5 12.8584C3.95 13.1667 3.425 13.525 2.94167 13.9167L2.05 13.025C2.80833 12.4 3.63333 11.8667 4.50833 11.4417V12.8584H4.5ZM17.0583 13.9084C16.5667 13.5084 16.05 13.1584 15.5 12.85V11.4334C16.3667 11.8584 17.1917 12.3917 17.95 13.0167L17.0583 13.9084ZM17.6333 3.71669L16.4583 2.54169L13.4917 5.50002L14.6667 6.67502C14.6667 6.67502 17.5417 3.74169 17.6333 3.71669ZM9.16667 0.166687H10.8333V4.33335H9.16667V0.166687ZM5.33333 6.67502L6.50833 5.50002L3.55 2.53335L2.36667 3.71669C2.45833 3.74169 5.33333 6.67502 5.33333 6.67502Z" fill="#596C81"/>
</svg>
