<svg width="18" height="19" viewBox="0 0 18 19" fill="none" xmlns="http://www.w3.org/2000/svg">
<path d="M9 4.89648C9.19891 4.89648 9.38968 4.9755 9.53033 5.11615C9.67098 5.25681 9.75 5.44757 9.75 5.64648V8.64648H12.75C12.9489 8.64648 13.1397 8.7255 13.2803 8.86615C13.421 9.00681 13.5 9.19757 13.5 9.39648C13.5 9.5954 13.421 9.78616 13.2803 9.92682C13.1397 10.0675 12.9489 10.1465 12.75 10.1465H9.75V13.1465C9.75 13.3454 9.67098 13.5362 9.53033 13.6768C9.38968 13.8175 9.19891 13.8965 9 13.8965C8.80109 13.8965 8.61032 13.8175 8.46967 13.6768C8.32902 13.5362 8.25 13.3454 8.25 13.1465V10.1465H5.25C5.05109 10.1465 4.86032 10.0675 4.71967 9.92682C4.57902 9.78616 4.5 9.5954 4.5 9.39648C4.5 9.19757 4.57902 9.00681 4.71967 8.86615C4.86032 8.7255 5.05109 8.64648 5.25 8.64648H8.25V5.64648C8.25 5.44757 8.32902 5.25681 8.46967 5.11615C8.61032 4.9755 8.80109 4.89648 9 4.89648Z" fill="#0052A9"/>
<path d="M0 9.39648C-1.76116e-08 8.21459 0.232792 7.04426 0.685084 5.95233C1.13738 4.8604 1.80031 3.86825 2.63604 3.03252C3.47177 2.1968 4.46392 1.53386 5.55585 1.08157C6.64778 0.629276 7.8181 0.396484 9 0.396484C10.1819 0.396484 11.3522 0.629276 12.4442 1.08157C13.5361 1.53386 14.5282 2.1968 15.364 3.03252C16.1997 3.86825 16.8626 4.8604 17.3149 5.95233C17.7672 7.04426 18 8.21459 18 9.39648C18 11.7834 17.0518 14.0726 15.364 15.7604C13.6761 17.4483 11.3869 18.3965 9 18.3965C6.61305 18.3965 4.32387 17.4483 2.63604 15.7604C0.948211 14.0726 3.55683e-08 11.7834 0 9.39648ZM9 1.89648C7.01088 1.89648 5.10322 2.68666 3.6967 4.09318C2.29018 5.49971 1.5 7.40736 1.5 9.39648C1.5 11.3856 2.29018 13.2933 3.6967 14.6998C5.10322 16.1063 7.01088 16.8965 9 16.8965C10.9891 16.8965 12.8968 16.1063 14.3033 14.6998C15.7098 13.2933 16.5 11.3856 16.5 9.39648C16.5 7.40736 15.7098 5.49971 14.3033 4.09318C12.8968 2.68666 10.9891 1.89648 9 1.89648Z" fill="#0052A9"/>
</svg>
