<svg width="18" height="19" viewBox="0 0 18 19" fill="none" xmlns="http://www.w3.org/2000/svg">
<path d="M5.25 8.64648C5.05109 8.64648 4.86032 8.7255 4.71967 8.86615C4.57902 9.00681 4.5 9.19757 4.5 9.39648C4.5 9.5954 4.57902 9.78616 4.71967 9.92682C4.86032 10.0675 5.05109 10.1465 5.25 10.1465H12.75C12.9489 10.1465 13.1397 10.0675 13.2803 9.92682C13.421 9.78616 13.5 9.5954 13.5 9.39648C13.5 9.19757 13.421 9.00681 13.2803 8.86615C13.1397 8.7255 12.9489 8.64648 12.75 8.64648H5.25ZM9 0.396484C7.8181 0.396484 6.64778 0.629276 5.55585 1.08157C4.46392 1.53386 3.47177 2.1968 2.63604 3.03252C1.80031 3.86825 1.13738 4.8604 0.685084 5.95233C0.232792 7.04426 0 8.21459 0 9.39648C0 10.5784 0.232792 11.7487 0.685084 12.8406C1.13738 13.9326 1.80031 14.9247 2.63604 15.7604C3.47177 16.5962 4.46392 17.2591 5.55585 17.7114C6.64778 18.1637 7.8181 18.3965 9 18.3965C11.3869 18.3965 13.6761 17.4483 15.364 15.7604C17.0518 14.0726 18 11.7834 18 9.39648C18 7.00954 17.0518 4.72035 15.364 3.03252C13.6761 1.3447 11.3869 0.396484 9 0.396484ZM1.5 9.39648C1.5 7.40736 2.29018 5.49971 3.6967 4.09318C5.10322 2.68666 7.01088 1.89648 9 1.89648C10.9891 1.89648 12.8968 2.68666 14.3033 4.09318C15.7098 5.49971 16.5 7.40736 16.5 9.39648C16.5 11.3856 15.7098 13.2933 14.3033 14.6998C12.8968 16.1063 10.9891 16.8965 9 16.8965C7.01088 16.8965 5.10322 16.1063 3.6967 14.6998C2.29018 13.2933 1.5 11.3856 1.5 9.39648Z" fill="#3FAAD7"/>
</svg>
