<svg width="17" height="17" viewBox="0 0 17 17" fill="none" xmlns="http://www.w3.org/2000/svg">
<path d="M6.76532 10.1322L10.7339 12.1129C10.8841 12.1876 11.054 12.2132 11.2195 12.1861C11.3851 12.159 11.5379 12.0806 11.6565 11.9619C11.775 11.8433 11.8533 11.6904 11.8803 11.5248C11.9073 11.3592 11.8816 11.1894 11.8068 11.0393L9.8229 7.07379L5.85349 5.08514C5.70334 5.01038 5.53349 4.98467 5.36794 5.01164C5.20239 5.03862 5.04949 5.11692 4.93084 5.23548C4.81219 5.35404 4.73378 5.50688 4.70668 5.67241C4.67959 5.83795 4.70517 6.00781 4.77982 6.15802L6.76532 10.1322ZM9.02791 7.86878L10.4947 10.8016L7.5603 9.33639L6.09191 6.39801L9.02791 7.86878Z" fill="#3FAAD7"/>
<path d="M8.30948 16.4998C9.89184 16.4998 11.4387 16.0306 12.7543 15.1515C14.07 14.2723 15.0954 13.0228 15.701 11.5609C16.3065 10.0989 16.4648 8.49028 16.1561 6.93833C15.8473 5.38639 15.0853 3.96085 13.9663 2.84201C12.8474 1.72317 11.4218 0.961264 9.86979 0.652656C8.31782 0.344048 6.70918 0.502595 5.24731 1.10825C3.78544 1.7139 2.53601 2.73945 1.65701 4.05521C0.778008 5.37098 0.308926 6.91785 0.309082 8.50021C0.309082 9.5508 0.516024 10.5911 0.918091 11.5617C1.32016 12.5323 1.90948 13.4142 2.65239 14.1571C3.39531 14.8999 4.27727 15.4891 5.24792 15.8911C6.21857 16.2931 7.25889 16.4999 8.30948 16.4998ZM1.38749 8.09995C1.48394 6.42496 2.18444 4.84175 3.35913 3.64383C4.53382 2.44591 6.10302 1.71455 7.7758 1.58532V3.79581H8.84236V1.58532C10.5149 1.71451 12.0839 2.44565 13.2585 3.64324C14.4332 4.84083 15.1339 6.42366 15.2307 8.09837H13.1086V9.16415H15.2102C15.0531 10.788 14.3285 12.3045 13.1638 13.4469C11.9991 14.5894 10.469 15.2846 8.84236 15.4104V13.3972H7.7758V15.4104C6.14921 15.2846 4.61904 14.5894 3.45438 13.4469C2.28971 12.3045 1.56511 10.788 1.40801 9.16415H3.50798V8.09995H1.38749Z" fill="#3FAAD7"/>
</svg>
