<svg width="17" height="15" viewBox="0 0 17 15" fill="none" xmlns="http://www.w3.org/2000/svg">
<path d="M8.87368 7.06147C9.38394 7.05686 9.88147 6.90163 10.3038 6.61526C10.7262 6.32889 11.0545 5.92415 11.2477 5.45183C11.4408 4.97951 11.4901 4.46067 11.3895 3.96042C11.2888 3.46017 11.0426 3.0008 10.6818 2.63998C10.3209 2.27915 9.86156 2.03295 9.36131 1.93227C8.86106 1.83158 8.34221 1.88091 7.8699 2.07405C7.39758 2.2672 6.99284 2.59555 6.70647 3.0179C6.4201 3.44025 6.26487 3.93778 6.26025 4.44805C6.2614 5.14082 6.5371 5.80489 7.02697 6.29476C7.51683 6.78462 8.18091 7.06033 8.87368 7.06147ZM8.82015 2.95441C9.23011 2.95487 9.62316 3.11793 9.91304 3.40782C10.2029 3.69771 10.366 4.09075 10.3664 4.50071C10.357 4.89756 10.1927 5.27497 9.90868 5.5523C9.62466 5.82963 9.24344 5.98488 8.84648 5.98488C8.44952 5.98488 8.0683 5.82963 7.78429 5.5523C7.50027 5.27497 7.33598 4.89756 7.32652 4.50071C7.3241 4.09892 7.47904 3.71215 7.75819 3.42315C8.03734 3.13416 8.41852 2.96591 8.82015 2.95441Z" fill="#3FAAD7"/>
<path d="M16.7674 6.7412C15.743 5.82983 14.4042 5.3527 13.0342 5.41074H12.6077C12.5136 5.80974 12.3512 6.18946 12.1277 6.53313C12.4277 6.48875 12.7311 6.47084 13.0342 6.4796C14.0462 6.43282 15.0437 6.73384 15.8609 7.33261V11.1729H16.928V6.90179L16.7683 6.74206L16.7674 6.7412Z" fill="#3FAAD7"/>
<path d="M11.8074 1.99511C11.8724 1.83525 11.9685 1.68989 12.0901 1.56748C12.2117 1.44507 12.3564 1.34804 12.5159 1.28203C12.6753 1.21602 12.8463 1.18234 13.0189 1.18295C13.1914 1.18355 13.3621 1.21844 13.5211 1.28557C13.6801 1.3527 13.8241 1.45075 13.9449 1.57401C14.0657 1.69728 14.1607 1.84331 14.2246 2.00362C14.2885 2.16393 14.3198 2.33534 14.3169 2.50788C14.314 2.68042 14.2768 2.85066 14.2075 3.00871C14.1075 3.23926 13.9442 3.43678 13.7365 3.57841C13.5289 3.72005 13.2854 3.80001 13.0342 3.80905C12.9075 3.8175 12.7804 3.79927 12.6612 3.75552C12.7038 4.00208 12.7217 4.25224 12.7148 4.50234V4.82265C12.8218 4.82265 12.928 4.87618 13.0351 4.87618C13.6648 4.88328 14.2715 4.63994 14.7218 4.1997C15.1721 3.75945 15.429 3.15837 15.4361 2.52867C15.4432 1.89898 15.1999 1.29225 14.7596 0.841971C14.3194 0.391689 13.7183 0.134735 13.0886 0.127637C12.6761 0.122242 12.2698 0.22853 11.9128 0.435241C11.5557 0.641951 11.2613 0.941385 11.0605 1.30182C11.3584 1.47278 11.6137 1.70891 11.8074 1.99252V1.99511Z" fill="#3FAAD7"/>
<path d="M5.72759 6.58137C5.50341 6.23952 5.33986 5.86159 5.2441 5.46417H4.82019C3.4604 5.41249 2.1299 5.86789 1.08697 6.74196L0.927246 6.90168V11.1685H1.99351V7.32818C2.81415 6.7364 3.80917 6.43613 4.82019 6.47517C5.12539 6.481 5.42929 6.51657 5.72759 6.58137Z" fill="#3FAAD7"/>
<path d="M4.82374 4.82189C4.93327 4.83031 5.04321 4.81193 5.14405 4.76836V4.44805C5.13334 4.19789 5.1513 3.94732 5.19758 3.70124C5.07837 3.74498 4.9513 3.76322 4.8246 3.75477C4.4909 3.7461 4.17377 3.60744 3.9408 3.36835C3.70784 3.12926 3.57747 2.80864 3.57747 2.47482C3.57747 2.141 3.70784 1.82037 3.9408 1.58128C4.17377 1.34219 4.4909 1.20354 4.8246 1.19487C5.0845 1.19578 5.33858 1.27181 5.55626 1.41381C5.77393 1.55581 5.9459 1.75772 6.05145 1.99521C6.29179 1.71937 6.56 1.4691 6.8518 1.2484C6.64061 0.890691 6.33909 0.594799 5.97746 0.390398C5.61584 0.185996 5.20682 0.0802716 4.79144 0.083827C4.37606 0.0873825 3.96892 0.200093 3.61084 0.410655C3.25277 0.621216 2.95635 0.922226 2.75132 1.2835C2.54629 1.64477 2.43985 2.0536 2.44268 2.46898C2.44551 2.88437 2.55751 3.29171 2.76745 3.65015C2.97739 4.00859 3.27788 4.30553 3.63879 4.51119C3.99971 4.71685 4.40835 4.824 4.82374 4.82189Z" fill="#3FAAD7"/>
<path d="M13.2475 9.94161L13.1405 9.78189C12.6204 9.19478 11.9784 8.7284 11.2593 8.41537C10.5402 8.10234 9.76134 7.95023 8.97729 7.96967C8.18585 7.95051 7.39962 8.1026 6.67242 8.41554C5.94523 8.72847 5.29424 9.19485 4.76404 9.78275L4.66043 9.94161V13.9951C4.6594 14.1145 4.68214 14.2328 4.72733 14.3433C4.77252 14.4537 4.83926 14.5541 4.92364 14.6385C5.00803 14.7229 5.10838 14.7896 5.21883 14.8348C5.32929 14.88 5.44764 14.9027 5.56697 14.9017H12.3937C12.6318 14.8945 12.8583 14.7967 13.0267 14.6282C13.1952 14.4598 13.293 14.2333 13.3002 13.9951V9.94161H13.2475ZM12.1804 13.8346H5.7267V10.3146C6.15749 9.8976 6.66642 9.56983 7.22426 9.35011C7.7821 9.13038 8.37785 9.02303 8.97729 9.03421C9.57008 9.01551 10.1603 9.1196 10.711 9.33994C11.2616 9.56028 11.7607 9.89211 12.1769 10.3146L12.1804 13.8346Z" fill="#3FAAD7"/>
</svg>
